<?xml version="1.0" standalone="no"?>
<!DOCTYPE svg PUBLIC "-//W3C//DTD SVG 20010904//EN"
 "http://www.w3.org/TR/2001/REC-SVG-20010904/DTD/svg10.dtd">
<svg version="1.0" xmlns="http://www.w3.org/2000/svg"
 width="840.000000pt" height="840.000000pt" viewBox="0 0 840.000000 840.000000"
 preserveAspectRatio="xMidYMid meet">
<metadata>
Created by potrace 1.11, written by Peter Selinger 2001-2013
</metadata>
<g transform="translate(0.000000,840.000000) scale(0.100000,-0.100000)"
fill="#000000" stroke="none">
<path d="M8355 7350 c-4 -6 -11 -7 -17 -4 -7 4 -8 2 -4 -5 6 -9 11 -9 22 0 14
11 18 19 10 19 -3 0 -8 -5 -11 -10z"/>
<path d="M8376 7343 c-6 -14 -5 -15 5 -6 7 7 10 15 7 18 -3 3 -9 -2 -12 -12z"/>
<path d="M8385 7319 c-4 -6 -5 -12 -2 -15 2 -3 7 2 10 11 7 17 1 20 -8 4z"/>
<path d="M8378 7276 c5 -6 9 -21 10 -34 1 -21 -1 -22 -16 -10 -13 10 -12 7 2
-9 15 -19 16 -25 6 -38 -7 -8 -15 -13 -19 -11 -4 3 -7 -4 -7 -15 0 -19 1 -19
17 2 l17 22 0 -26 c0 -16 -5 -24 -11 -20 -6 4 -7 1 -3 -6 15 -23 21 1 22 78 0
57 -3 78 -13 78 -7 0 -9 -5 -5 -11z"/>
<path d="M8350 7260 c0 -5 5 -10 10 -10 6 0 10 5 10 10 0 6 -4 10 -10 10 -5 0
-10 -4 -10 -10z"/>
<path d="M8326 7202 c-3 -5 1 -9 9 -9 8 0 15 4 15 9 0 4 -4 8 -9 8 -6 0 -12
-4 -15 -8z"/>
<path d="M8310 7176 c0 -2 8 -10 18 -17 15 -13 16 -12 3 4 -13 16 -21 21 -21
13z"/>
<path d="M8356 7117 c3 -10 9 -15 12 -12 3 3 0 11 -7 18 -10 9 -11 8 -5 -6z"/>
<path d="M140 7046 c0 -2 8 -10 18 -17 15 -13 16 -12 3 4 -13 16 -21 21 -21
13z"/>
<path d="M394 7038 c-4 -7 -4 -10 1 -6 4 4 15 2 24 -5 14 -11 14 -10 2 6 -16
20 -18 21 -27 5z"/>
<path d="M1115 7041 c-3 -5 -2 -12 3 -15 5 -3 9 1 9 9 0 17 -3 19 -12 6z"/>
<path d="M1274 7031 c17 -19 17 -21 3 -21 -10 0 -17 4 -17 9 0 5 -7 12 -16 15
-14 5 -15 4 -4 -9 10 -13 9 -15 -9 -15 -14 0 -20 4 -15 11 5 8 1 8 -14 0 -27
-14 -35 -14 -26 2 5 8 2 8 -9 -2 -14 -11 -17 -11 -17 0 0 9 -3 10 -8 3 -8 -13
-111 -13 -131 0 -10 6 -12 6 -7 -2 5 -8 -1 -12 -14 -12 -12 0 -19 4 -16 8 3 5
-1 9 -9 9 -8 0 -12 -4 -9 -8 2 -5 -106 -7 -240 -7 -221 2 -244 3 -233 17 9 12
7 12 -8 -1 -14 -11 -36 -16 -67 -15 -26 1 -45 4 -43 7 2 3 -6 7 -18 7 -16 2
-18 0 -8 -6 8 -6 -6 -8 -37 -8 -28 1 -48 5 -46 9 3 4 -12 0 -33 -8 -38 -16
-62 -32 -31 -21 18 6 18 -7 0 -39 -6 -12 -8 -25 -4 -29 4 -5 -2 -5 -13 -2 -20
7 -20 7 -1 -8 11 -8 23 -15 26 -15 13 0 5 -80 -9 -85 -9 -4 -11 0 -7 10 3 9 2
13 -3 10 -14 -8 -9 -42 6 -42 6 0 10 4 7 9 -3 4 0 8 5 8 6 0 11 -7 11 -15 0
-8 -4 -15 -10 -15 -5 0 -10 -7 -10 -15 0 -8 -4 -15 -10 -15 -5 0 -10 -5 -10
-12 0 -9 3 -9 12 0 19 19 23 15 24 -23 0 -19 -3 -35 -8 -35 -4 0 -7 5 -5 11 1
6 -5 14 -13 16 -13 4 -13 3 0 -6 13 -10 13 -11 0 -12 -10 0 -8 -4 6 -11 14 -6
21 -19 20 -33 0 -13 -5 -21 -9 -18 -5 3 -6 12 -3 20 3 8 2 12 -3 8 -5 -3 -11
1 -14 7 -2 7 -4 1 -3 -14 0 -14 3 -25 5 -23 2 2 9 -1 15 -8 14 -14 15 -102 2
-114 -5 -5 -6 -2 -1 6 6 10 4 12 -5 6 -11 -7 -10 -10 1 -19 8 -6 15 -17 17
-25 3 -12 0 -12 -13 -1 -13 11 -15 10 -9 -4 3 -9 10 -16 15 -16 5 0 9 -5 9
-11 0 -5 -4 -7 -10 -4 -5 3 -10 2 -10 -4 0 -5 6 -12 13 -14 10 -4 10 -6 0 -6
-7 -1 -13 -6 -13 -12 0 -5 4 -8 9 -5 11 7 9 -13 -2 -31 -5 -7 -4 -13 2 -13 12
0 9 -149 -3 -169 -6 -9 -5 -12 1 -8 6 4 10 -8 10 -27 0 -27 -4 -33 -16 -29
-14 4 -14 3 0 -6 21 -13 26 -126 6 -115 -9 5 -9 3 1 -7 6 -7 12 -26 12 -42 0
-24 -3 -28 -22 -23 l-23 6 23 -11 c24 -13 29 -47 10 -68 -10 -11 -10 -13 -1
-7 8 5 13 1 13 -9 0 -12 -5 -15 -18 -11 -16 6 -16 5 1 -8 14 -10 15 -15 5 -19
-10 -4 -10 -6 0 -6 6 -1 12 -11 12 -23 0 -19 -2 -20 -10 -8 -6 9 -10 10 -10 3
0 -6 4 -14 9 -17 5 -3 9 -72 9 -153 1 -147 5 -190 18 -202 4 -3 5 2 1 11 -7
20 16 31 32 15 8 -8 14 -8 22 0 6 6 19 8 30 6 19 -5 19 -6 2 -19 -14 -11 -14
-14 -3 -12 8 2 20 12 27 23 7 11 12 15 13 8 0 -11 42 -9 61 3 4 2 12 -4 18
-13 7 -12 10 -13 11 -4 0 9 8 12 25 9 14 -3 25 -1 25 4 0 5 9 4 20 -2 11 -6
20 -7 20 -3 0 4 5 2 12 -5 9 -9 16 -8 30 5 10 9 18 11 18 6 0 -6 14 -9 30 -8
17 1 30 -2 30 -7 0 -6 -7 -8 -14 -5 -10 4 -13 1 -9 -9 7 -19 20 -18 27 4 6 19
60 24 85 8 11 -7 13 -5 8 8 -5 12 -3 15 5 10 7 -5 38 -8 70 -9 47 0 60 -4 73
-22 9 -13 11 -23 5 -26 -6 -3 -5 -4 2 -3 7 2 12 11 12 20 -2 22 1 20 22 -11
15 -24 15 -26 1 -14 -12 9 -17 10 -17 2 0 -6 7 -14 15 -17 13 -5 15 -157 14
-1216 0 -666 -3 -1217 -6 -1224 -3 -8 -9 -11 -14 -8 -5 3 -9 -1 -9 -10 0 -8
-7 -13 -17 -11 -10 1 -26 -2 -35 -6 -11 -6 -19 -5 -24 3 -5 7 -3 8 6 3 9 -5
11 -4 6 4 -6 9 -11 9 -21 1 -19 -16 -111 -9 -107 8 1 8 -2 11 -8 7 -6 -3 -8
-11 -5 -16 4 -5 -1 -9 -9 -9 -8 0 -17 8 -19 18 -4 16 -5 16 -6 0 0 -10 -6 -18
-12 -18 -5 0 -7 6 -4 13 4 6 0 3 -9 -7 -15 -18 -16 -18 -26 8 -5 15 -14 24
-20 21 -5 -3 -10 -8 -10 -11 0 -3 4 -2 10 1 5 3 10 -1 10 -10 0 -11 -5 -15
-15 -11 -8 3 -15 0 -15 -6 0 -7 -6 -3 -14 7 -8 11 -12 24 -9 29 4 5 1 6 -6 2
-9 -6 -9 -11 0 -22 9 -11 7 -14 -10 -14 -15 0 -20 4 -15 13 6 9 4 9 -7 0 -18
-17 -119 -17 -119 0 0 9 -2 9 -8 0 -5 -8 -36 -12 -94 -11 -67 2 -89 -2 -102
-14 -12 -12 -13 -18 -3 -21 7 -4 6 -6 -4 -6 -24 -1 -31 -27 -11 -43 15 -11 15
-11 5 3 -12 15 -8 29 7 29 11 0 4 -41 -9 -49 -6 -4 -9 -15 -5 -24 3 -9 11 -14
16 -11 6 4 6 -2 -1 -14 -6 -11 -16 -23 -23 -26 -7 -3 -4 -4 7 -1 17 4 20 0 21
-24 1 -23 -2 -28 -15 -24 -13 4 -13 2 2 -10 14 -11 15 -16 5 -20 -10 -4 -10
-6 0 -6 6 -1 12 -6 12 -12 0 -5 -4 -8 -9 -5 -11 7 -9 -13 2 -31 5 -8 3 -13 -5
-13 -8 0 -9 -3 -3 -8 6 -4 10 -14 10 -22 0 -8 -4 -18 -10 -22 -6 -5 -5 -8 4
-8 11 0 11 -3 0 -17 -8 -9 -9 -14 -3 -10 6 3 11 0 11 -8 0 -8 -4 -12 -8 -9 -4
2 -11 -1 -15 -7 -4 -7 -3 -9 4 -5 6 3 14 1 18 -5 3 -6 0 -15 -7 -20 -12 -7
-11 -9 1 -9 13 0 13 -1 0 -10 -11 -7 -11 -10 -2 -10 10 0 10 -5 1 -21 -7 -15
-8 -19 0 -15 14 9 11 -106 -3 -116 -7 -5 -6 -8 3 -8 11 0 9 -4 -5 -15 -12 -9
-13 -13 -4 -10 13 5 16 -5 15 -62 0 -37 -4 -71 -10 -75 -6 -5 -6 -8 2 -8 12 0
12 -17 -1 -38 -5 -8 -4 -18 3 -25 18 -18 13 -29 -11 -23 l-23 6 22 -11 c13 -7
23 -21 23 -33 0 -17 -2 -18 -10 -6 -6 9 -10 10 -10 3 0 -6 5 -15 10 -18 6 -3
10 -11 10 -16 0 -6 -4 -8 -8 -5 -5 3 -9 -1 -9 -9 0 -8 4 -12 9 -9 13 8 10 -10
-5 -25 -7 -8 -7 -11 -1 -8 7 4 12 -3 12 -18 0 -16 -5 -22 -12 -18 -6 4 -5 -1
3 -10 11 -14 11 -20 0 -34 -10 -11 -10 -14 -2 -9 7 4 13 2 13 -3 0 -6 -6 -11
-12 -11 -8 0 -9 -3 -3 -8 16 -11 18 -54 3 -63 -9 -6 -9 -9 -1 -9 15 0 14 -62
-1 -72 -7 -5 -6 -8 3 -8 11 0 11 -3 0 -17 -11 -13 -11 -15 -1 -9 19 12 13 -53
-7 -78 -9 -11 -11 -16 -4 -13 17 10 28 -13 12 -24 -12 -7 -12 -9 0 -9 11 0 11
-3 0 -17 -8 -9 -9 -14 -4 -11 7 4 11 -5 10 -22 0 -15 -3 -26 -7 -23 -5 2 -8 0
-8 -6 0 -5 5 -13 10 -16 8 -5 7 -12 -2 -23 -10 -12 -10 -14 -1 -8 8 4 13 1 13
-9 0 -12 7 -14 31 -10 17 3 28 2 25 -3 -2 -4 4 -8 14 -8 10 0 17 3 14 7 -2 4
3 9 11 13 8 3 17 1 20 -5 4 -5 10 -7 15 -4 5 3 12 1 15 -5 4 -7 12 -7 18 -2
15 10 27 10 46 -2 9 -6 12 -5 8 1 -4 6 7 10 24 11 17 0 33 3 36 6 3 3 13 1 22
-4 10 -5 23 -5 30 -1 7 5 27 5 45 1 18 -4 42 -3 54 1 12 5 22 5 22 1 0 -4 29
-7 65 -8 36 0 65 4 65 9 0 4 4 6 8 3 18 -11 62 -14 62 -5 0 6 6 7 12 2 19 -11
118 -10 118 2 0 7 3 7 8 0 9 -13 42 -16 42 -3 0 5 6 6 12 2 18 -12 178 -11
178 1 0 5 5 4 11 -2 7 -7 21 -8 40 -3 18 5 29 5 29 -1 0 -6 8 -5 20 1 11 6 20
7 20 3 0 -4 43 -8 95 -8 52 0 95 4 95 9 0 5 6 4 12 -1 13 -9 109 -9 134 1 8 3
14 2 14 -2 0 -5 17 -7 38 -4 20 2 43 3 50 3 6 -1 19 -1 27 -1 8 0 22 0 30 0 8
0 21 0 28 -1 6 0 30 0 52 0 22 1 86 0 143 -2 56 -1 102 1 102 6 0 5 6 5 13 0
6 -6 30 -9 52 -6 66 6 79 4 104 -11 9 -6 12 -5 7 2 -4 7 3 10 21 8 16 -1 34 2
41 7 6 5 12 5 12 1 0 -11 93 -10 109 1 6 3 11 3 11 -2 0 -10 81 -10 98 0 6 5
12 5 12 0 0 -9 287 -10 296 0 3 3 12 3 20 0 25 -9 184 -8 184 2 0 5 5 4 11 -2
6 -6 23 -8 44 -3 19 4 37 5 40 2 7 -7 143 -4 155 3 5 3 11 1 14 -3 10 -17 56
-1 57 19 0 11 1 63 1 117 0 60 5 100 12 104 8 6 7 8 -1 8 -7 0 -13 10 -13 21
0 19 2 20 18 8 16 -12 16 -12 0 6 -16 17 -16 19 0 32 15 12 15 13 0 7 -16 -6
-20 17 -5 32 4 4 2 13 -4 21 -9 9 -8 13 0 13 10 0 15 -13 12 -32 0 -5 4 -8 10
-8 12 0 2 42 -13 51 -5 3 2 10 15 16 18 8 28 8 36 0 8 -8 11 -8 11 1 0 7 -4
12 -8 12 -5 0 -9 7 -9 15 0 9 6 14 14 11 8 -4 11 -1 8 5 -4 6 -13 8 -20 5 -21
-8 -38 19 -23 36 7 7 14 20 16 28 1 8 -7 4 -18 -10 -13 -16 -18 -18 -14 -7 4
12 2 16 -7 14 -8 -2 -11 -2 -6 0 4 3 7 9 7 14 0 6 -4 8 -9 5 -5 -3 -9 41 -10
100 -2 84 1 104 11 98 10 -5 11 -4 1 7 -7 7 -13 29 -13 49 0 26 3 31 10 20 6
-9 10 -10 10 -3 0 6 -4 15 -10 18 -14 9 -12 68 3 84 9 11 9 12 0 7 -17 -10
-16 342 1 363 8 11 8 13 0 8 -8 -5 -11 14 -11 63 1 51 5 69 13 66 7 -3 18 2
24 9 13 16 34 10 25 -6 -4 -5 -1 -9 4 -9 6 0 11 -7 11 -15 0 -8 5 -15 10 -15
6 0 10 -7 10 -15 0 -8 5 -15 11 -15 8 0 8 -4 1 -13 -8 -9 -6 -16 8 -25 12 -7
19 -21 17 -35 -1 -15 3 -21 13 -19 8 2 12 0 8 -4 -4 -4 0 -13 10 -21 9 -8 12
-12 5 -9 -6 4 -14 0 -16 -6 -4 -9 -6 -8 -6 3 -1 8 -13 26 -27 40 -26 23 -26
23 -13 2 8 -13 17 -23 20 -23 4 0 9 -9 12 -19 3 -14 11 -18 25 -14 11 2 23 -1
27 -8 5 -7 4 -10 -3 -5 -6 3 -14 1 -18 -5 -4 -7 -3 -9 3 -6 15 9 50 -25 47
-46 -1 -9 1 -15 5 -13 4 3 13 -4 20 -16 7 -11 8 -18 3 -14 -5 3 -9 -1 -9 -8 0
-8 7 -12 15 -8 9 3 13 1 9 -5 -4 -6 0 -14 9 -17 9 -3 14 -12 12 -18 -3 -7 8
-26 24 -43 29 -31 37 -51 16 -40 -7 4 -4 -1 6 -9 11 -9 17 -16 13 -16 -4 0 1
-10 13 -22 11 -12 20 -27 20 -34 0 -7 6 -15 13 -17 9 -4 8 -8 -3 -16 -13 -9
-13 -11 2 -11 10 0 22 -10 29 -21 9 -17 8 -20 -3 -14 -7 3 -4 -1 7 -10 11 -9
19 -23 17 -32 -2 -8 1 -12 6 -9 6 3 12 -1 15 -9 4 -10 1 -12 -11 -9 -9 3 -6
-2 8 -10 14 -8 21 -15 16 -16 -5 0 1 -11 13 -24 15 -16 19 -26 11 -31 -8 -5
-8 -11 -1 -19 6 -7 7 -17 3 -21 -4 -5 -1 -5 6 -1 10 6 10 11 1 22 -8 10 -8 14
0 14 11 0 15 -12 12 -42 -1 -10 3 -18 9 -18 6 0 8 5 5 10 -10 16 1 11 16 -7
10 -11 10 -14 2 -9 -7 4 -13 2 -13 -3 0 -6 5 -11 10 -11 6 0 10 -7 10 -16 0
-8 4 -13 9 -10 5 3 11 -1 14 -9 4 -9 1 -12 -7 -9 -8 3 -17 1 -21 -5 -3 -6 0
-9 7 -6 8 3 22 -2 33 -11 11 -8 15 -13 9 -10 -6 3 -11 -1 -11 -8 0 -9 7 -12
16 -8 14 5 14 3 3 -11 -12 -14 -11 -16 7 -12 28 5 27 -3 -1 -15 -19 -7 -19 -9
-5 -9 12 -1 16 -5 11 -13 -5 -8 -1 -8 12 2 10 8 16 11 12 6 -4 -4 2 -18 13
-29 11 -12 17 -27 14 -35 -2 -7 -1 -11 4 -8 5 3 18 -8 28 -25 l20 -30 43 73
c24 40 47 76 53 79 5 3 8 10 8 15 -1 5 6 17 15 28 9 10 17 24 18 30 1 6 9 22
17 36 9 14 28 46 43 72 15 27 31 48 37 48 6 0 8 4 5 9 -5 8 52 113 74 135 6 6
10 16 10 24 0 7 6 20 13 27 29 34 37 45 31 45 -4 0 1 9 11 20 11 12 20 28 21
36 1 9 10 24 20 35 9 10 13 19 8 19 -5 0 0 7 11 16 11 8 19 17 18 19 -3 7 30
66 48 85 8 9 14 21 12 27 -2 5 3 16 12 23 8 7 15 18 15 24 0 7 8 21 19 32 10
11 22 30 25 42 5 13 12 20 19 16 7 -4 9 -4 5 1 -4 4 -2 17 4 29 7 11 11 25 10
30 -2 5 4 6 13 2 11 -4 15 -1 13 11 -2 10 2 18 7 18 6 0 16 4 23 8 8 6 12 4
10 -5 -2 -7 3 -12 10 -10 8 1 11 -2 8 -7 -3 -5 1 -14 8 -20 12 -11 13 -17 1
-46 -13 -28 -12 -35 0 -45 10 -8 12 -17 6 -29 -6 -10 -5 -24 1 -35 8 -15 8
-17 -2 -11 -9 6 -11 4 -5 -5 11 -18 13 -152 2 -167 -6 -9 -5 -13 2 -13 8 0 9
-5 1 -19 -7 -14 -7 -22 1 -27 8 -4 7 -9 -2 -15 -8 -5 -9 -9 -4 -9 6 0 10 -35
10 -85 0 -47 -4 -85 -8 -85 -5 0 -5 -5 -2 -10 4 -6 1 -18 -6 -26 -9 -12 -9
-13 2 -9 11 4 14 -4 13 -32 -1 -21 -3 -38 -4 -38 -6 0 -5 -47 1 -51 5 -2 6
-11 3 -19 -4 -8 -10 -13 -14 -10 -5 3 -12 1 -15 -5 -4 -6 -3 -10 2 -9 22 4 34
-2 26 -13 -11 -19 -12 -37 -3 -43 5 -3 7 -11 5 -18 -11 -36 -15 -68 -8 -64 10
6 9 -95 -1 -111 -3 -6 -2 -13 4 -17 6 -4 7 -12 3 -18 -10 -16 -10 -38 -1 -59
5 -9 4 -20 -2 -23 -6 -4 -7 -12 -3 -18 8 -14 10 -87 2 -87 -3 0 -5 -10 -3 -23
1 -12 3 -22 4 -22 2 0 3 -13 4 -30 l2 -29 339 -1 c187 0 345 4 352 8 6 4 14 4
17 -1 3 -6 20 -7 41 -2 19 4 35 5 35 1 0 -3 45 -6 100 -6 55 0 100 4 100 8 0
5 5 5 12 1 7 -4 93 -8 192 -9 100 0 187 -4 195 -9 10 -6 12 -5 7 2 -9 15 -1
15 26 1 11 -6 18 -7 15 -2 -3 5 12 9 34 10 25 1 36 -3 32 -10 -4 -6 -1 -7 8
-1 20 12 279 11 279 -1 0 -5 4 -4 9 4 6 9 11 10 15 2 4 -6 12 -8 19 -4 18 11
117 11 110 0 -4 -6 -1 -7 8 -1 19 11 649 13 673 1 10 -5 16 -5 13 0 -3 4 126
8 286 8 161 0 306 1 322 3 l30 4 0 71 c0 40 3 80 8 90 4 9 4 17 0 17 -4 0 -8
24 -8 54 0 30 4 52 9 49 5 -4 6 0 1 7 -11 17 -12 60 -3 87 4 12 3 25 -2 28 -6
4 -7 13 -1 24 8 13 8 145 1 171 -4 15 0 323 4 328 3 3 1 11 -5 19 -8 9 -8 17
-1 25 16 20 16 22 4 45 -8 14 -9 24 -2 28 6 4 7 12 3 18 -10 17 -13 37 -4 37
4 0 7 9 7 20 0 11 -3 20 -6 20 -8 0 -4 55 4 69 4 5 2 12 -4 16 -7 4 -7 12 0
26 8 14 7 19 -2 19 -9 0 -9 3 -1 11 6 6 9 18 6 27 -5 11 -2 13 8 7 10 -5 9 -3
-2 9 -17 19 -14 70 4 59 6 -4 7 -1 1 8 -11 18 -13 151 -3 164 4 6 -5 17 -21
27 -16 9 -32 14 -34 10 -6 -10 -129 -7 -146 3 -9 5 -11 4 -6 -3 4 -7 2 -12 -3
-12 -6 0 -11 5 -11 12 0 9 -3 9 -12 0 -15 -15 -32 -16 -22 -1 4 7 -1 7 -15 -1
-17 -9 -26 -9 -37 1 -11 9 -14 9 -14 0 0 -7 -5 -9 -10 -6 -6 4 -7 11 -4 17 4
7 2 8 -5 4 -6 -4 -9 -11 -6 -15 2 -5 -9 -8 -25 -7 -17 1 -28 6 -26 12 2 6 -2
11 -9 11 -7 0 -11 -5 -9 -11 3 -8 -36 -11 -125 -9 -71 0 -133 3 -138 5 -4 2
-18 3 -30 2 -12 0 -20 3 -17 7 4 8 -8 13 -26 11 -3 0 -7 54 -8 121 -1 87 2
123 11 129 9 6 9 8 -2 8 -11 0 -11 3 0 17 8 9 9 14 3 10 -8 -4 -11 2 -10 17 0
13 4 22 9 19 4 -2 7 1 7 6 0 6 -4 11 -8 11 -5 0 -9 7 -9 15 0 8 4 12 9 9 4 -3
8 0 8 5 0 6 -5 11 -11 11 -8 0 -9 4 0 13 6 8 7 17 3 21 -11 12 -9 190 3 198 6
5 5 8 -2 8 -7 0 -13 5 -13 11 0 5 6 7 13 3 9 -6 9 -5 0 7 -16 20 -17 892 -1
883 7 -5 8 -2 2 7 -13 21 -14 93 -1 101 7 5 8 8 2 8 -15 0 -16 73 -1 82 8 6 8
8 0 8 -8 0 -12 33 -12 100 -1 77 2 99 11 93 9 -5 9 -3 1 8 -12 16 -17 62 -5
55 4 -3 8 1 8 9 0 8 -4 12 -8 9 -10 -6 -6 68 5 85 6 10 5 12 -2 7 -16 -9 -15
7 0 22 9 9 9 12 1 12 -14 0 -14 40 0 58 6 8 6 12 -2 12 -12 0 -10 27 2 48 5 7
3 12 -5 12 -9 0 -9 3 2 10 10 6 11 10 3 10 -7 0 -13 5 -13 11 0 5 5 7 11 3 8
-5 8 -1 0 13 -7 14 -7 24 2 33 7 7 7 10 1 7 -7 -4 -11 5 -11 23 0 16 5 27 10
23 5 -3 4 4 -3 16 -9 17 -9 26 1 37 7 8 7 14 1 14 -5 0 -9 11 -8 24 1 17 6 23
19 20 12 -2 17 1 14 9 -3 8 6 13 24 13 16 1 27 -1 25 -5 -2 -3 6 -6 19 -6 13
0 21 3 20 6 -2 3 137 5 310 5 172 -1 311 2 308 7 -2 4 1 7 7 7 6 0 8 11 6 25
-3 14 -1 23 4 20 4 -3 10 2 14 10 6 17 -10 30 -17 15 -3 -6 -4 -5 -3 2 2 7 8
13 14 13 6 0 17 6 24 14 11 11 9 12 -9 6 -13 -3 -23 -3 -24 2 0 4 -2 16 -4 26
-2 9 1 15 6 11 5 -3 9 0 9 5 0 6 5 10 11 9 6 -2 14 4 16 12 3 9 1 11 -4 5 -18
-23 -38 -15 -38 15 -1 17 3 30 7 30 4 0 8 5 8 11 0 5 -4 7 -10 4 -14 -9 -12 8
3 24 10 11 10 13 0 7 -7 -4 -13 -2 -13 3 0 6 6 11 13 11 7 0 8 3 2 8 -15 11
-19 46 -4 36 9 -5 9 -3 3 7 -5 8 -9 52 -9 99 -1 65 3 88 15 97 13 10 13 13 -5
27 -19 15 -19 15 7 10 15 -2 30 1 34 8 5 7 2 9 -8 5 -9 -3 -24 1 -35 9 -17 13
-16 14 11 8 26 -6 28 -5 15 8 -8 9 -18 13 -23 10 -5 -3 -6 0 -2 7 6 9 11 9 22
0 10 -8 14 -8 14 0 0 6 -5 11 -11 11 -5 0 -7 5 -3 11 4 8 1 8 -12 1 -18 -9
-19 -6 -19 48 0 37 3 56 10 52 6 -3 5 0 -1 9 -17 21 -13 235 4 231 8 -1 11 2
7 8 -3 6 -11 8 -16 5 -5 -4 -9 -2 -9 4 0 5 5 13 10 16 6 4 7 12 3 18 -12 19
-10 86 2 79 5 -3 4 2 -4 11 -9 11 -10 17 -2 17 6 0 11 5 11 11 0 5 -4 7 -10 4
-6 -4 -10 7 -10 25 0 21 4 29 12 24 7 -5 8 -3 2 7 -13 22 -14 42 -1 58 9 11 9
13 0 8 -9 -6 -11 33 -10 158 1 112 -1 161 -8 153 -14 -18 -60 -24 -50 -7 6 8
4 10 -6 4 -18 -12 -141 -14 -156 -3 -7 5 -14 5 -18 -2 -4 -7 -13 -7 -27 1 -15
8 -19 8 -14 0 9 -13 -4 -14 -24 -2 -8 6 -18 7 -23 4 -6 -3 -40 -7 -78 -7 -58
-1 -66 1 -56 13 8 10 4 9 -15 -3 -17 -11 -28 -13 -33 -7 -4 7 -13 8 -23 3 -25
-12 -47 -8 -44 8 2 13 0 13 -10 0 -18 -21 -48 -22 -48 -1 0 10 -3 12 -8 5 -9
-14 -52 -25 -52 -12 0 5 -6 6 -12 1 -17 -10 -51 -4 -60 11 -5 7 -8 6 -8 -4 0
-12 -13 -15 -60 -15 -41 0 -60 4 -60 13 0 6 -4 12 -10 12 -5 0 -7 -8 -4 -17 5
-15 3 -15 -10 1 -12 15 -16 16 -16 5 0 -20 -40 -19 -41 1 0 10 -3 9 -9 -5 -5
-11 -9 -15 -9 -9 -1 7 -16 9 -46 4 -26 -4 -48 -3 -52 3 -3 5 -9 3 -14 -4 -7
-11 -9 -11 -9 1 0 13 -1 13 -10 0 -8 -12 -10 -12 -11 5 l0 20 -9 -20 c-5 -11
-9 -14 -9 -7 -1 10 -6 10 -21 2 -15 -8 -20 -8 -20 2 0 8 -3 9 -8 3 -12 -17
-126 -12 -134 5 -6 13 -7 13 -7 0 -1 -13 -19 -15 -113 -12 -62 2 -117 3 -123
3 -5 0 -40 -1 -77 -2 -42 -2 -72 2 -81 10 -13 10 -17 9 -26 -6 -10 -17 -10
-17 -11 2 l-1 20 -9 -20 c-6 -14 -9 -16 -10 -5 -2 8 -2 19 -1 23 1 5 -3 6 -9
2 -6 -3 -7 -11 -4 -17 5 -7 1 -9 -9 -5 -10 4 -17 2 -17 -5 0 -7 -5 -6 -15 2
-12 10 -15 10 -15 -1 0 -9 -3 -10 -8 -4 -9 12 -72 14 -72 1 0 -4 -7 -3 -15 4
-8 7 -15 9 -15 4 0 -5 -66 -8 -147 -6 -82 1 -152 2 -158 2 -5 0 -36 -1 -67 -3
-36 -2 -58 1 -58 8 0 6 -3 7 -8 0 -8 -11 -41 -13 -58 -2 -6 3 -14 3 -18 -1
-11 -10 -66 -11 -66 0 0 5 -5 6 -11 3 -9 -6 -221 -10 -244 -5 -5 1 -14 1 -20
0 -5 -2 -21 -3 -35 -4 -22 -1 -35 -22 -117 -186 -51 -102 -98 -194 -105 -205
-6 -11 -13 -26 -14 -34 -2 -8 -9 -18 -16 -22 -7 -5 -9 -9 -3 -9 5 0 4 -5 -3
-12 -7 -7 -12 -20 -12 -30 0 -10 -4 -18 -10 -18 -5 0 -10 -7 -10 -16 0 -9 -5
-12 -12 -8 -7 4 -8 3 -4 -4 9 -15 -101 -242 -117 -242 -8 0 -8 -3 -2 -8 6 -4
2 -22 -11 -49 -12 -23 -25 -39 -29 -35 -5 4 -5 -1 -2 -10 4 -10 2 -18 -3 -18
-6 0 -10 -3 -9 -7 2 -16 -14 -53 -23 -53 -5 0 -6 -4 -3 -10 3 -5 1 -10 -4 -10
-6 0 -10 -3 -9 -7 3 -13 -13 -53 -21 -53 -4 0 -8 -6 -8 -12 0 -17 -56 -132
-65 -136 -5 -2 -8 -7 -8 -12 0 -5 -5 -21 -11 -37 -8 -22 -12 -25 -20 -13 -7
11 -8 7 -3 -12 4 -19 2 -28 -7 -28 -7 0 -9 -3 -6 -7 4 -3 -1 -12 -11 -20 -9
-8 -11 -12 -4 -8 10 5 10 1 0 -19 -6 -14 -16 -26 -21 -26 -6 0 -8 -3 -4 -6 3
-4 0 -19 -9 -35 -8 -16 -13 -30 -12 -31 2 -2 -7 -17 -20 -35 -12 -17 -22 -36
-22 -43 0 -6 -5 -8 -12 -4 -7 4 -8 3 -4 -5 11 -17 -16 -72 -33 -66 -11 4 -12
3 -1 -10 9 -11 9 -15 1 -15 -7 0 -9 -4 -6 -10 3 -5 1 -10 -5 -10 -6 0 -9 -4
-5 -9 3 -6 -5 -20 -17 -32 -13 -12 -17 -19 -11 -15 9 5 11 2 7 -8 -3 -9 -11
-16 -17 -16 -6 0 -8 -3 -4 -6 3 -4 -1 -21 -10 -38 -10 -17 -18 -35 -18 -41 -1
-5 -7 -9 -15 -7 -11 3 -11 0 1 -14 9 -12 9 -15 2 -10 -8 4 -13 2 -13 -5 0 -20
-33 -89 -43 -89 -4 0 -6 -4 -2 -9 3 -5 -2 -16 -10 -25 -9 -8 -15 -17 -15 -18
4 -10 -14 -58 -21 -58 -5 0 -8 -3 -7 -7 5 -17 -27 -83 -38 -79 -6 2 -11 -3
-10 -12 1 -11 -6 -17 -20 -16 -22 1 -25 -10 -10 -34 7 -11 4 -12 -12 -3 -30
16 -36 14 -21 -6 13 -16 12 -17 -3 -4 -10 7 -15 18 -11 25 4 6 -1 4 -12 -4
-17 -14 -17 -13 -10 10 7 23 6 24 -7 6 -14 -17 -15 -17 -21 -2 -4 10 -3 15 3
11 6 -3 10 -2 10 4 0 5 -9 12 -20 16 -11 3 -19 9 -18 13 1 4 -28 68 -64 142
-36 74 -76 158 -88 185 -13 28 -42 92 -66 142 -25 51 -44 96 -43 99 0 4 -4 10
-11 14 -6 4 -12 17 -13 28 -1 12 -5 22 -8 22 -4 0 -13 16 -20 35 -7 19 -17 35
-22 35 -5 0 -4 7 3 16 8 8 9 14 4 12 -5 -2 -9 0 -9 3 0 3 -8 13 -18 23 -9 10
-15 22 -12 27 4 5 1 9 -6 9 -6 0 -9 8 -6 20 3 11 0 18 -6 17 -6 -1 -13 8 -15
21 -2 12 -8 22 -13 22 -5 0 -9 4 -9 10 0 5 -19 48 -41 95 -36 74 -39 88 -28
103 13 15 12 16 -3 4 -15 -12 -19 -9 -33 24 -9 21 -13 44 -10 51 2 8 1 11 -5
8 -11 -7 -32 29 -23 39 3 3 1 6 -6 6 -8 0 -11 8 -8 19 3 14 1 18 -10 14 -7 -3
-13 -2 -11 3 1 5 -8 29 -20 53 -12 25 -22 50 -22 57 0 7 -3 14 -7 16 -14 6
-43 79 -37 91 4 7 4 9 -1 5 -4 -4 -18 11 -30 35 -11 23 -26 51 -32 62 -25 48
-47 101 -46 112 0 7 -3 10 -8 7 -5 -3 -9 1 -9 8 0 7 -9 30 -20 51 -11 20 -17
37 -13 37 5 0 4 4 -2 8 -14 10 -39 56 -26 48 5 -4 13 -1 17 5 4 7 3 9 -2 6
-19 -11 -37 12 -38 46 -1 23 -5 33 -13 30 -7 -3 -13 2 -13 11 0 9 -5 16 -11
16 -8 0 -9 11 -5 33 3 17 3 27 -2 21 -5 -9 -11 -8 -20 2 -7 8 -10 14 -6 14 3
0 -1 11 -10 25 -9 14 -14 30 -11 35 3 6 1 10 -5 10 -6 0 -15 10 -21 23 -10 22
-13 22 -155 19 -109 -3 -149 0 -162 10 -11 9 -14 10 -8 1 4 -8 2 -13 -6 -13
-8 0 -20 6 -27 13 -8 7 -11 7 -8 1 5 -8 -7 -12 -33 -12 -29 -1 -38 3 -33 11 4
7 0 6 -10 -2 -13 -10 -20 -11 -31 -2 -8 7 -17 8 -20 3 -3 -5 -28 -9 -56 -9
-27 0 -48 3 -45 6 2 4 -6 8 -18 8 -17 2 -19 0 -7 -7 10 -6 -22 -8 -87 -7 -55
1 -99 6 -96 10 3 5 -4 4 -15 -2 -25 -13 -35 -14 -28 -2 6 10 -9 9 -35 -3 -19
-8 -41 -5 -51 9 -5 6 -8 4 -8 -5 0 -13 -1 -13 -10 0 -6 10 -10 11 -10 3 0 -7
-11 -12 -25 -11 -14 1 -25 6 -25 10 0 4 -8 8 -17 8 -15 0 -16 -2 -3 -10 8 -5
11 -10 6 -10 -5 0 -19 8 -30 18 -20 16 -20 16 -7 0 12 -16 11 -18 -15 -18 -22
0 -26 3 -14 10 9 6 10 10 3 10 -6 0 -15 -4 -18 -10 -3 -5 -11 -10 -16 -10 -6
0 -7 6 -3 13 6 9 4 9 -7 2 -20 -15 -52 -12 -57 4 -3 10 0 12 14 7 15 -5 16 -4
7 5 -14 14 -36 2 -29 -17 3 -9 -2 -14 -14 -14 -11 0 -20 5 -20 10 0 6 -5 10
-11 10 -5 0 -8 -3 -6 -7 3 -5 -19 -8 -49 -9 -50 -1 -59 4 -55 29 1 5 -3 5 -9
2 -6 -4 -9 -13 -6 -20 3 -9 -6 -12 -30 -12 -26 1 -33 5 -29 16 4 11 0 10 -15
-4 -18 -17 -21 -17 -38 -2 -13 12 -21 13 -32 6 -12 -9 -12 -10 3 -5 9 3 17 1
17 -4 0 -6 -9 -10 -20 -10 -11 0 -20 5 -20 11 0 5 -6 7 -12 3 -18 -11 -48 -12
-48 -2 0 4 -5 8 -11 8 -5 0 -8 -3 -6 -7 3 -5 -39 -8 -94 -8 -54 0 -99 2 -99 5
0 3 -10 11 -22 19 -23 14 -23 14 -4 -8z m-1064 -91 c0 -5 -5 -10 -11 -10 -5 0
-7 5 -4 10 3 6 8 10 11 10 2 0 4 -4 4 -10z m216 -16 c1 -9 0 -13 -4 -10 -3 4
-7 14 -8 22 -1 9 0 13 4 10 3 -4 7 -14 8 -22z m318 17 c3 -4 -4 -17 -17 -27
-22 -19 -22 -19 -4 2 9 11 14 24 10 27 -3 4 -4 7 0 7 3 0 8 -4 11 -9z m103
-13 c2 -17 0 -19 -7 -8 -5 8 -6 18 -4 22 8 12 10 10 11 -14z m173 18 c0 -2 -8
-10 -17 -17 -16 -13 -17 -12 -4 4 13 16 21 21 21 13z m1744 -12 c3 -8 2 -12
-4 -9 -6 3 -10 10 -10 16 0 14 7 11 14 -7z m256 -16 c0 -5 -11 -1 -25 8 -14 9
-25 18 -25 20 0 2 11 -2 25 -8 14 -6 25 -15 25 -20z m2380 17 c-14 -17 -1 -20
18 -5 7 5 5 2 -3 -7 -12 -13 -17 -14 -27 -5 -17 17 -33 15 -18 -3 7 -9 10 -18
6 -22 -3 -3 -6 -1 -6 6 0 7 -5 9 -10 6 -8 -5 -7 -11 1 -21 10 -12 10 -15 -1
-12 -8 2 -14 -4 -15 -12 -1 -8 -7 -14 -14 -12 -9 2 -11 -3 -7 -15 6 -14 4 -15
-5 -6 -6 6 -8 17 -3 25 5 7 9 19 11 27 1 8 7 17 13 21 7 4 11 10 11 14 -3 22
1 28 19 23 11 -3 23 -1 26 4 3 5 8 9 11 9 3 0 0 -7 -7 -15z m386 3 c4 4 4 2 1
-5 -4 -6 -17 -9 -29 -5 -14 3 -19 1 -14 -6 4 -7 -1 -9 -15 -7 -28 6 -41 18
-14 13 12 -2 19 2 18 9 -2 9 4 10 21 3 13 -5 27 -6 32 -2z m-5156 -2 c0 -2 -6
-9 -14 -15 -11 -9 -16 -9 -22 0 -4 7 -3 9 4 5 6 -3 13 -2 17 4 6 10 15 14 15
6z m136 -24 c-17 -16 -18 -16 -5 5 7 12 15 20 18 17 3 -2 -3 -12 -13 -22z
m1821 13 c0 -8 -4 -15 -9 -15 -10 0 -11 14 -1 23 9 10 10 9 10 -8z m240 -7
c-3 -8 -6 -5 -6 6 -1 11 2 17 5 13 3 -3 4 -12 1 -19z m53 8 c-7 -7 -13 -7 -20
0 -6 6 -3 10 10 10 13 0 16 -4 10 -10z m184 -2 c3 -8 2 -12 -4 -9 -6 3 -10 10
-10 16 0 14 7 11 14 -7z m2547 -1 c13 -17 13 -17 -6 -3 -11 8 -22 16 -24 17
-2 2 0 3 6 3 6 0 17 -8 24 -17z m75 -5 c0 -10 -1 -18 -1 -18 0 0 -8 9 -17 19
-16 18 -15 20 1 18 9 0 17 -9 17 -19z m167 9 c3 -7 -3 -13 -13 -13 -10 0 -16
6 -13 13 3 7 9 13 13 13 4 0 10 -6 13 -13z m37 9 c0 -3 -4 -8 -10 -11 -5 -3
-10 -1 -10 4 0 6 5 11 10 11 6 0 10 -2 10 -4z m60 -3 c0 -2 -12 -8 -26 -13
-15 -6 -22 -14 -18 -22 4 -7 3 -8 -4 -4 -17 10 5 42 29 42 10 0 19 -2 19 -3z
m220 3 c0 -2 -8 -10 -17 -17 -16 -13 -17 -12 -4 4 13 16 21 21 21 13z m133
-11 c-3 -9 -8 -14 -10 -11 -3 3 -2 9 2 15 9 16 15 13 8 -4z m87 11 c0 -2 -8
-10 -17 -17 -16 -13 -17 -12 -4 4 13 16 21 21 21 13z m1427 -2 c-3 -3 -12 -4
-19 -1 -8 3 -5 6 6 6 11 1 17 -2 13 -5z m229 -9 c-1 -8 -5 -17 -8 -21 -5 -4
-4 16 1 34 3 9 9 -1 7 -13z m57 2 c7 3 8 2 4 -2 -14 -16 -36 -14 -29 3 4 10 7
12 10 4 2 -7 9 -9 15 -5z m-7128 -7 c3 -6 -1 -7 -9 -4 -18 7 -21 14 -7 14 6 0
13 -4 16 -10z m750 0 c3 -5 1 -10 -4 -10 -6 0 -11 5 -11 10 0 6 2 10 4 10 3 0
8 -4 11 -10z m805 0 c0 -5 -5 -10 -11 -10 -5 0 -7 5 -4 10 3 6 8 10 11 10 2 0
4 -4 4 -10z m134 -2 c-3 -4 -11 -5 -19 -1 -21 7 -19 12 4 10 11 0 18 -5 15 -9z
m259 -8 c3 -11 1 -18 -4 -14 -5 3 -9 12 -9 20 0 20 7 17 13 -6z m47 10 c0 -5
-2 -10 -4 -10 -3 0 -8 5 -11 10 -3 6 -1 10 4 10 6 0 11 -4 11 -10z m4957 -10
c-1 -21 -10 -18 -13 5 -1 8 2 15 6 15 5 0 8 -9 7 -20z m67 8 c-4 -5 -9 -7 -12
-4 -3 3 -12 0 -21 -7 -14 -10 -14 -10 -4 4 13 16 46 23 37 7z m-7084 -12 c0
-2 -7 -7 -16 -10 -8 -3 -12 -2 -9 4 6 10 25 14 25 6z m1800 -1 c0 -7 -30 -13
-34 -7 -3 4 4 9 15 9 10 1 19 0 19 -2z m95 -4 c-9 -8 -36 -10 -30 -2 2 4 11 8
20 8 8 0 13 -3 10 -6z m4985 -1 c0 -5 -2 -10 -4 -10 -3 0 -8 5 -11 10 -3 6 -1
10 4 10 6 0 11 -4 11 -10z m-4740 -14 c0 -3 -4 -8 -10 -11 -5 -3 -10 -1 -10 4
0 6 5 11 10 11 6 0 10 -2 10 -4z m2256 -91 c-9 -7 -12 -16 -8 -20 4 -5 1 -5
-6 -1 -8 5 -9 13 -2 25 5 10 6 22 2 27 -4 5 1 2 11 -6 17 -13 17 -15 3 -25z
m-2199 10 c0 -8 -4 -12 -9 -9 -5 3 -6 10 -3 15 9 13 12 11 12 -6z m2171 -60
c-3 -3 -9 2 -12 12 -6 14 -5 15 5 6 7 -7 10 -15 7 -18z m-2128 -5 c0 -5 -5
-10 -11 -10 -5 0 -7 5 -4 10 3 6 8 10 11 10 2 0 4 -4 4 -10z m2125 -20 c3 -6
-1 -7 -9 -4 -18 7 -21 14 -7 14 6 0 13 -4 16 -10z m-15 -14 c0 -2 -7 -7 -16
-10 -8 -3 -12 -2 -9 4 6 10 25 14 25 6z m-5 -26 c-3 -5 -12 -10 -18 -10 -7 0
-6 4 3 10 19 12 23 12 15 0z m-35 -35 c-10 -12 -10 -15 0 -15 8 0 11 -3 7 -6
-3 -3 -11 -3 -17 1 -8 5 -8 11 1 21 6 8 14 14 16 14 3 0 0 -7 -7 -15z m-2000
-61 c0 -8 -19 -13 -24 -6 -3 5 1 9 9 9 8 0 15 -2 15 -3z m1967 -36 c4 -28 -6
-18 -12 12 -2 12 -1 20 2 16 4 -4 8 -16 10 -28z m-1959 2 c-7 -10 -14 -17 -17
-15 -4 4 18 35 25 35 2 0 -1 -9 -8 -20z m26 -52 c-2 -3 -13 -6 -24 -5 -24 2
-18 13 9 13 11 0 18 -4 15 -8z m1921 2 c-3 -5 -12 -10 -18 -10 -7 0 -6 4 3 10
19 12 23 12 15 0z m-1908 -25 c0 -8 -4 -12 -9 -9 -5 3 -6 10 -3 15 9 13 12 11
12 -6z m1881 -40 c-3 -3 -9 2 -12 12 -6 14 -5 15 5 6 7 -7 10 -15 7 -18z
m-1844 -33 c2 -4 -5 -9 -17 -9 -17 -2 -19 0 -7 7 18 12 18 12 24 2z m1806 -16
c0 -3 -4 -8 -10 -11 -5 -3 -10 -1 -10 4 0 6 5 11 10 11 6 0 10 -2 10 -4z
m-1762 -71 c-3 -3 -9 2 -12 12 -6 14 -5 15 5 6 7 -7 10 -15 7 -18z m1697 -64
c3 -5 2 -12 -3 -15 -5 -3 -9 1 -9 9 0 17 3 19 12 6z m-1637 -76 c-3 -3 -9 2
-12 12 -6 14 -5 15 5 6 7 -7 10 -15 7 -18z m1597 -23 c-3 -3 -11 0 -18 7 -9
10 -8 11 6 5 10 -3 15 -9 12 -12z m-1415 -372 c0 -5 -2 -10 -4 -10 -3 0 -8 5
-11 10 -3 6 -1 10 4 10 6 0 11 -4 11 -10z m4144 -259 c12 -13 14 -21 6 -26 -6
-4 -9 -1 -8 7 2 7 -2 12 -8 11 -6 -1 -11 5 -11 13 0 18 0 18 21 -5z m91 -1 c3
-5 1 -10 -4 -10 -6 0 -11 5 -11 10 0 6 2 10 4 10 3 0 8 -4 11 -10z m133 -15
c-3 -3 -9 2 -12 12 -6 14 -5 15 5 6 7 -7 10 -15 7 -18z m92 0 c0 -2 -7 -1 -17
2 -12 5 -14 3 -8 -8 5 -8 4 -11 0 -6 -5 4 -10 14 -11 22 -2 12 2 12 17 5 10
-6 19 -13 19 -15z m-260 1 c0 -2 -7 -7 -16 -10 -8 -3 -12 -2 -9 4 6 10 25 14
25 6z m65 -6 c-3 -5 -12 -10 -18 -10 -7 0 -6 4 3 10 19 12 23 12 15 0z m-487
-165 c-3 -3 -9 2 -12 12 -6 14 -5 15 5 6 7 -7 10 -15 7 -18z m-3523 -55 c3 -5
1 -10 -4 -10 -6 0 -11 5 -11 10 0 6 2 10 4 10 3 0 8 -4 11 -10z m3516 -93
c-10 -9 -11 -8 -5 6 3 10 9 15 12 12 3 -3 0 -11 -7 -18z m13 -25 c3 -5 -1 -9
-9 -9 -8 0 -12 4 -9 9 3 4 7 8 9 8 2 0 6 -4 9 -8z m13 -67 c0 -8 -4 -12 -9 -9
-5 3 -6 10 -3 15 9 13 12 11 12 -6z m-17 -49 c0 -2 -7 -7 -16 -10 -8 -3 -12
-2 -9 4 6 10 25 14 25 6z m8 -101 c-3 -3 -9 2 -12 12 -6 14 -5 15 5 6 7 -7 10
-15 7 -18z m-1 -37 c-3 -8 -6 -5 -6 6 -1 11 2 17 5 13 3 -3 4 -12 1 -19z
m-3350 -3 c0 -8 -4 -12 -9 -9 -5 3 -6 10 -3 15 9 13 12 11 12 -6z m223 -75 c0
-5 -5 -10 -11 -10 -5 0 -7 5 -4 10 3 6 8 10 11 10 2 0 4 -4 4 -10z m3120 -30
c0 -5 -5 -10 -11 -10 -5 0 -7 5 -4 10 3 6 8 10 11 10 2 0 4 -4 4 -10z m14 -59
c-7 -8 -54 -9 -49 -1 2 3 15 6 29 6 14 0 23 -2 20 -5z m-17 -36 c0 -8 -4 -12
-9 -9 -5 3 -6 10 -3 15 9 13 12 11 12 -6z m18 -105 c3 -5 1 -10 -4 -10 -6 0
-11 5 -11 10 0 6 2 10 4 10 3 0 8 -4 11 -10z m-19 -408 c-17 -16 -18 -16 -5 5
7 12 15 20 18 17 3 -2 -3 -12 -13 -22z m1 -62 c-5 -31 -13 -32 -12 -1 0 16 3
27 7 25 4 -3 6 -14 5 -24z m-4591 -95 c20 -33 50 -85 66 -115 34 -64 51 -93
59 -100 3 -3 18 -31 34 -63 15 -31 32 -60 36 -63 5 -3 7 -10 4 -15 -4 -5 -1
-9 4 -9 6 0 11 -7 11 -15 0 -8 4 -15 8 -15 5 0 14 -16 22 -35 8 -19 17 -35 22
-35 4 0 8 -4 8 -9 0 -5 23 -46 51 -91 28 -45 59 -96 69 -114 9 -17 50 -87 89
-154 39 -68 71 -128 71 -133 0 -5 5 -9 10 -9 6 0 10 -6 10 -14 0 -8 3 -16 8
-18 9 -4 62 -114 67 -139 2 -11 0 -17 -6 -14 -5 4 -7 10 -4 15 3 5 1 12 -5 15
-6 4 -10 3 -9 -2 3 -19 -2 -33 -12 -33 -5 0 -7 6 -4 13 4 6 1 5 -7 -3 -13 -15
-28 -15 -251 -11 -35 1 -46 4 -42 14 4 6 1 5 -7 -3 -11 -13 -39 -15 -168 -13
-85 1 -164 5 -176 7 -19 5 -21 13 -22 96 0 67 2 89 11 83 9 -5 9 -3 0 8 -15
18 -14 178 1 198 8 11 8 13 -1 7 -7 -4 -13 -3 -13 1 0 5 6 15 13 22 6 8 7 11
1 8 -8 -5 -11 53 -10 208 0 118 -3 215 -7 215 -5 0 -6 4 -2 9 3 6 6 90 6 188
1 98 4 182 6 186 7 12 17 0 59 -68z m4595 42 c-10 -9 -11 -8 -5 6 3 10 9 15
12 12 3 -3 0 -11 -7 -18z m-4524 -6 c0 -11 -5 -18 -9 -15 -4 3 -5 11 -1 19 7
21 12 19 10 -4z m2843 -22 c0 -11 -13 -12 -26 -1 -5 4 -1 -1 9 -10 16 -15 18
-37 17 -250 -2 -283 -1 -261 -14 -270 -8 -6 -8 -8 0 -8 7 0 12 -21 12 -55 0
-37 -4 -53 -12 -48 -6 3 -6 0 2 -8 6 -7 12 -17 12 -22 0 -4 -6 -5 -12 -1 -10
6 -10 4 -2 -7 6 -8 11 -23 11 -34 0 -11 -5 -26 -11 -34 -8 -11 -8 -13 2 -7 8
5 12 1 12 -11 0 -11 -6 -25 -12 -32 -10 -11 -10 -13 0 -7 6 4 12 3 12 -1 0 -5
-6 -15 -12 -22 -7 -8 -8 -11 -2 -8 7 4 10 -4 9 -21 -1 -18 -7 -27 -18 -26 -9
1 -14 -2 -11 -7 3 -5 12 -9 21 -9 13 0 14 -2 2 -17 -12 -15 -12 -16 1 -8 13 8
13 7 1 -8 -11 -14 -11 -17 0 -17 9 0 10 -3 3 -8 -17 -12 -23 -39 -11 -51 8 -8
8 -11 -2 -11 -7 0 -9 -5 -6 -10 4 -6 11 -7 17 -4 7 4 8 2 4 -4 -4 -6 -13 -9
-21 -5 -21 7 -19 -7 3 -23 15 -12 15 -13 0 -8 -13 4 -16 1 -12 -18 l5 -23 -10
23 c-12 27 -18 28 -18 5 0 -41 -3 -44 -33 -40 -16 3 -28 2 -27 -1 1 -4 -7 -16
-18 -27 -20 -20 -69 -27 -92 -12 -6 4 -14 3 -18 -3 -9 -15 -27 -12 -20 3 4 6
1 5 -7 -3 -11 -13 -50 -15 -238 -15 -139 1 -224 5 -221 10 27 71 77 138 95
128 6 -4 4 2 -4 12 -14 17 -13 18 3 12 10 -4 16 -3 13 2 -7 11 16 71 27 71 4
0 5 5 1 12 -4 7 -3 8 4 4 7 -4 12 0 12 10 0 9 8 23 18 31 9 8 11 12 5 8 -7 -3
-13 -1 -13 4 0 10 14 15 32 12 4 0 5 6 1 14 -3 9 3 25 12 35 10 11 14 20 10
20 -4 0 -2 8 6 18 8 9 21 29 29 45 7 15 17 27 22 27 5 0 7 4 4 9 -3 5 8 27 24
50 17 22 30 47 30 55 0 8 7 16 15 20 8 3 14 11 13 18 -2 7 3 12 10 10 6 -1 11
1 10 5 -2 13 14 63 21 63 3 0 12 14 19 30 8 17 18 27 24 24 7 -4 8 -2 4 5 -4
6 0 24 10 39 10 15 17 30 16 35 -1 4 3 7 8 7 6 0 10 6 10 14 0 8 3 16 8 18 4
2 18 26 32 53 37 74 111 199 122 206 5 3 10 10 10 15 2 24 30 52 48 47 11 -3
20 -9 20 -14z m1693 -33 c-4 -5 -7 -39 -9 -75 -3 -86 -2 -83 -15 -75 -8 4 -7
9 2 15 11 7 9 9 -6 9 -11 0 -15 4 -10 8 6 4 10 16 10 27 -1 11 4 23 10 28 6 4
5 10 -5 17 -8 5 -11 10 -6 10 5 0 2 8 -5 18 -13 16 -13 16 5 2 18 -14 19 -13
14 6 -3 13 0 21 8 21 7 0 10 -5 7 -11z m-4480 -21 c-7 -21 -12 -19 -10 4 0 11
5 18 9 15 4 -3 5 -11 1 -19z m4440 -150 c-3 -9 -8 -14 -10 -11 -3 3 -2 9 2 15
9 16 15 13 8 -4z m30 -20 c-10 -8 -20 -11 -23 -8 -3 3 1 8 8 10 6 3 10 9 7 14
-4 5 1 6 10 3 14 -6 14 -8 -2 -19z m7 -25 c0 -5 -5 -10 -11 -10 -5 0 -7 5 -4
10 3 6 8 10 11 10 2 0 4 -4 4 -10z m-34 -9 c-7 -10 22 -24 34 -16 5 3 7 -3 5
-12 -2 -10 -4 -20 -4 -23 -1 -3 -10 -11 -21 -17 -16 -11 -18 -10 -13 4 5 12 3
14 -7 8 -8 -5 -11 -4 -6 3 4 6 13 9 20 6 26 -10 26 13 0 25 -21 9 -26 31 -8
31 3 0 3 -4 0 -9z m-6301 -39 c-3 -3 -11 0 -18 7 -9 10 -8 11 6 5 10 -3 15 -9
12 -12z m6329 -68 c5 -14 4 -15 -9 -4 -17 14 -19 20 -6 20 5 0 12 -7 15 -16z
m10 -42 c2 -4 -4 -8 -14 -8 -10 0 -16 4 -14 8 3 4 9 8 14 8 5 0 11 -4 14 -8z
m-6340 -88 c3 -8 2 -12 -4 -9 -6 3 -10 10 -10 16 0 14 7 11 14 -7z m2284 -319
c-3 -3 -9 2 -12 12 -6 14 -5 15 5 6 7 -7 10 -15 7 -18z m1602 -269 c0 -3 -4
-8 -10 -11 -5 -3 -10 -1 -10 4 0 6 5 11 10 11 6 0 10 -2 10 -4z m-27 -41 c-3
-9 -8 -14 -10 -11 -3 3 -2 9 2 15 9 16 15 13 8 -4z m697 -15 c0 -5 -5 -10 -11
-10 -5 0 -7 5 -4 10 3 6 8 10 11 10 2 0 4 -4 4 -10z m-10 -25 c0 -7 -30 -13
-34 -7 -3 4 4 9 15 9 10 1 19 0 19 -2z m-2086 -166 c-3 -5 -10 -7 -15 -3 -5 3
-7 10 -3 15 3 5 10 7 15 3 5 -3 7 -10 3 -15z m19 -1002 c-3 -4 -6 -7 -7 -5 -1
2 -8 12 -16 22 -14 18 -14 18 7 6 12 -8 19 -18 16 -23z"/>
<path d="M2726 4087 c3 -10 9 -15 12 -12 3 3 0 11 -7 18 -10 9 -11 8 -5 -6z"/>
<path d="M3150 2990 c0 -5 5 -10 11 -10 5 0 7 5 4 10 -3 6 -8 10 -11 10 -2 0
-4 -4 -4 -10z"/>
<path d="M3153 2915 c0 -8 4 -12 9 -9 5 3 6 10 3 15 -9 13 -12 11 -12 -6z"/>
<path d="M5305 3440 c-3 -6 1 -7 9 -4 18 7 21 14 7 14 -6 0 -13 -4 -16 -10z"/>
<path d="M5209 3123 c-13 -16 -12 -17 4 -4 9 7 17 15 17 17 0 8 -8 3 -21 -13z"/>
<path d="M5630 3136 c0 -2 8 -10 18 -17 15 -13 16 -12 3 4 -13 16 -21 21 -21
13z"/>
<path d="M5086 3073 c-6 -14 -5 -15 5 -6 7 7 10 15 7 18 -3 3 -9 -2 -12 -12z"/>
<path d="M5610 2939 c0 -5 5 -7 10 -4 6 3 10 8 10 11 0 2 -4 4 -10 4 -5 0 -10
-5 -10 -11z"/>
<path d="M5496 2897 c3 -10 9 -15 12 -12 3 3 0 11 -7 18 -10 9 -11 8 -5 -6z"/>
<path d="M1335 7040 c-3 -5 -1 -10 4 -10 6 0 11 5 11 10 0 6 -2 10 -4 10 -3 0
-8 -4 -11 -10z"/>
<path d="M1530 7040 c0 -5 5 -10 11 -10 5 0 7 5 4 10 -3 6 -8 10 -11 10 -2 0
-4 -4 -4 -10z"/>
<path d="M1702 7034 c-7 -8 -8 -14 -3 -14 10 0 25 19 20 25 -2 1 -10 -3 -17
-11z"/>
<path d="M1810 7040 c0 -5 5 -10 11 -10 5 0 7 5 4 10 -3 6 -8 10 -11 10 -2 0
-4 -4 -4 -10z"/>
<path d="M2195 7040 c-3 -5 -1 -10 4 -10 6 0 11 5 11 10 0 6 -2 10 -4 10 -3 0
-8 -4 -11 -10z"/>
<path d="M2432 7041 c-11 -7 -11 -9 0 -14 9 -3 15 1 15 9 0 8 -1 14 -1 14 -1
0 -7 -4 -14 -9z"/>
<path d="M7327 7039 c7 -7 15 -10 18 -7 3 3 -2 9 -12 12 -14 6 -15 5 -6 -5z"/>
<path d="M180 7036 c0 -2 7 -7 16 -10 8 -3 12 -2 9 4 -6 10 -25 14 -25 6z"/>
<path d="M145 7000 c-3 -6 1 -7 9 -4 18 7 21 14 7 14 -6 0 -13 -4 -16 -10z"/>
<path d="M155 6980 c-3 -5 -1 -10 4 -10 6 0 11 5 11 10 0 6 -2 10 -4 10 -3 0
-8 -4 -11 -10z"/>
<path d="M8210 6976 c0 -2 8 -10 18 -17 15 -13 16 -12 3 4 -13 16 -21 21 -21
13z"/>
<path d="M179 6888 c9 -12 10 -18 2 -18 -6 0 -11 -4 -11 -8 0 -5 6 -9 14 -9
17 0 15 23 -4 40 -12 10 -12 9 -1 -5z"/>
<path d="M3235 6780 c-3 -5 -1 -10 4 -10 6 0 11 5 11 10 0 6 -2 10 -4 10 -3 0
-8 -4 -11 -10z"/>
<path d="M185 6591 c-3 -5 -2 -12 3 -15 5 -3 9 1 9 9 0 17 -3 19 -12 6z"/>
<path d="M177 6543 c3 -7 6 -13 8 -13 2 0 5 6 8 13 3 8 -1 14 -8 14 -7 0 -11
-6 -8 -14z"/>
<path d="M183 6321 c0 -11 5 -18 9 -15 4 3 5 11 1 19 -7 21 -12 19 -10 -4z"/>
<path d="M185 6249 c-4 -6 -5 -12 -2 -15 2 -3 7 2 10 11 7 17 1 20 -8 4z"/>
<path d="M3510 6172 c6 -13 14 -21 18 -18 3 4 -2 14 -12 24 -18 16 -18 16 -6
-6z"/>
<path d="M175 6140 c3 -5 8 -10 11 -10 2 0 4 5 4 10 0 6 -5 10 -11 10 -5 0 -7
-4 -4 -10z"/>
<path d="M8214 6098 c0 -17 2 -17 12 -4 6 9 13 15 15 13 2 -1 3 0 1 2 -8 14
-28 6 -28 -11z"/>
<path d="M185 6080 c-3 -5 -1 -10 4 -10 6 0 11 5 11 10 0 6 -2 10 -4 10 -3 0
-8 -4 -11 -10z"/>
<path d="M8236 5953 c-6 -14 -5 -15 5 -6 7 7 10 15 7 18 -3 3 -9 -2 -12 -12z"/>
<path d="M8210 5936 c0 -2 8 -10 18 -17 15 -13 16 -12 3 4 -13 16 -21 21 -21
13z"/>
<path d="M8236 5727 c3 -10 9 -15 12 -12 3 3 0 11 -7 18 -10 9 -11 8 -5 -6z"/>
<path d="M8221 5636 c-8 -10 -9 -16 -1 -21 6 -4 9 -1 8 7 -2 7 3 12 10 10 8
-1 11 2 7 8 -8 13 -10 13 -24 -4z"/>
<path d="M4 5579 c-3 -6 -2 -15 3 -20 5 -5 9 -1 9 11 0 23 -2 24 -12 9z"/>
<path d="M8215 5561 c-3 -5 -1 -12 5 -16 5 -3 10 1 10 9 0 18 -6 21 -15 7z"/>
<path d="M4573 5545 c0 -8 4 -12 9 -9 5 3 6 10 3 15 -9 13 -12 11 -12 -6z"/>
<path d="M8240 5556 c0 -2 7 -7 16 -10 8 -3 12 -2 9 4 -6 10 -25 14 -25 6z"/>
<path d="M8249 5517 c-16 -12 -19 -51 -4 -64 4 -5 4 3 0 16 -4 15 -3 21 3 17
5 -3 9 0 8 7 0 6 4 13 9 14 6 0 9 -3 7 -9 -1 -5 2 -7 8 -3 8 5 7 11 -1 21 -6
8 -12 14 -13 14 0 0 -8 -6 -17 -13z"/>
<path d="M8215 5450 c3 -5 8 -10 11 -10 2 0 4 5 4 10 0 6 -5 10 -11 10 -5 0
-7 -4 -4 -10z"/>
<path d="M8213 5407 c0 -8 6 -14 14 -14 9 0 10 4 2 14 -6 7 -12 13 -14 13 -1
0 -2 -6 -2 -13z"/>
<path d="M390 5399 c0 -5 5 -7 10 -4 6 3 10 8 10 11 0 2 -4 4 -10 4 -5 0 -10
-5 -10 -11z"/>
<path d="M575 5399 c-3 -4 2 -6 10 -5 21 3 28 13 10 13 -9 0 -18 -4 -20 -8z"/>
<path d="M759 5393 c-13 -16 -12 -17 4 -4 16 13 21 21 13 21 -2 0 -10 -8 -17
-17z"/>
<path d="M790 5405 c0 -7 30 -13 34 -7 3 4 -4 9 -15 9 -10 1 -19 0 -19 -2z"/>
<path d="M836 5393 c-6 -14 -5 -15 5 -6 7 7 10 15 7 18 -3 3 -9 -2 -12 -12z"/>
<path d="M866 5401 c-3 -5 1 -11 9 -14 9 -4 12 -1 8 9 -6 16 -10 17 -17 5z"/>
<path d="M7503 5397 c0 -8 6 -14 14 -14 9 0 10 4 2 14 -6 7 -12 13 -14 13 -1
0 -2 -6 -2 -13z"/>
<path d="M8255 5401 c-3 -5 -2 -12 3 -15 5 -3 9 1 9 9 0 17 -3 19 -12 6z"/>
<path d="M666 5383 c-6 -14 -5 -15 5 -6 7 7 10 15 7 18 -3 3 -9 -2 -12 -12z"/>
<path d="M695 5380 c3 -5 8 -10 11 -10 2 0 4 5 4 10 0 6 -5 10 -11 10 -5 0 -7
-4 -4 -10z"/>
<path d="M7466 5374 c-3 -8 -2 -13 3 -9 5 3 12 -1 14 -7 4 -8 6 -7 6 4 1 23
-15 32 -23 12z"/>
<path d="M906 5322 c-2 -4 4 -8 15 -8 10 0 19 4 19 8 0 4 -6 8 -14 8 -8 0 -17
-4 -20 -8z"/>
<path d="M7470 5266 c0 -2 7 -7 16 -10 8 -3 12 -2 9 4 -6 10 -25 14 -25 6z"/>
<path d="M9 5213 c-10 -11 -10 -14 -1 -9 7 4 12 1 12 -9 0 -9 -4 -13 -10 -10
-5 3 -10 1 -10 -5 0 -25 25 -2 26 23 1 32 1 32 -17 10z"/>
<path d="M55 5180 c-3 -5 -1 -10 4 -10 6 0 11 5 11 10 0 6 -2 10 -4 10 -3 0
-8 -4 -11 -10z"/>
<path d="M7515 5171 c-3 -5 -2 -12 3 -15 5 -3 9 1 9 9 0 17 -3 19 -12 6z"/>
<path d="M26 5153 c-6 -15 -8 -15 -16 -3 -8 13 -10 12 -10 -2 0 -10 5 -18 11
-18 8 0 7 -5 -1 -15 -11 -13 -10 -14 4 -9 10 4 15 12 12 19 -2 7 1 18 7 24 6
6 8 13 5 16 -3 3 -9 -2 -12 -12z"/>
<path d="M7470 5126 c0 -2 7 -7 16 -10 8 -3 12 -2 9 4 -6 10 -25 14 -25 6z"/>
<path d="M7510 5121 c0 -6 4 -13 10 -16 6 -3 7 1 4 9 -7 18 -14 21 -14 7z"/>
<path d="M6 5082 c-3 -5 1 -9 9 -9 8 0 12 4 9 9 -3 4 -7 8 -9 8 -2 0 -6 -4 -9
-8z"/>
<path d="M7475 5049 c-4 -6 -5 -12 -2 -15 2 -3 7 2 10 11 7 17 1 20 -8 4z"/>
<path d="M7476 4959 c2 -4 -2 -10 -8 -12 -8 -4 -9 -6 -2 -6 6 -1 17 5 23 12 8
10 7 14 -4 14 -8 0 -12 -4 -9 -8z"/>
<path d="M4195 4840 c3 -5 8 -10 11 -10 2 0 4 5 4 10 0 6 -5 10 -11 10 -5 0
-7 -4 -4 -10z"/>
<path d="M176 4778 c3 -5 10 -6 15 -3 13 9 11 12 -6 12 -8 0 -12 -4 -9 -9z"/>
<path d="M175 4699 c-3 -4 2 -6 10 -5 21 3 28 13 10 13 -9 0 -18 -4 -20 -8z"/>
<path d="M155 4649 c-4 -6 -5 -12 -2 -15 2 -3 7 2 10 11 7 17 1 20 -8 4z"/>
<path d="M210 4619 c0 -5 5 -7 10 -4 6 3 10 8 10 11 0 2 -4 4 -10 4 -5 0 -10
-5 -10 -11z"/>
<path d="M210 4499 c0 -5 5 -7 10 -4 6 3 10 8 10 11 0 2 -4 4 -10 4 -5 0 -10
-5 -10 -11z"/>
<path d="M235 4430 c-4 -6 -11 -7 -17 -4 -7 4 -8 2 -4 -5 6 -9 11 -9 22 0 14
11 18 19 10 19 -3 0 -8 -5 -11 -10z"/>
<path d="M186 4358 c3 -5 10 -6 15 -3 13 9 11 12 -6 12 -8 0 -12 -4 -9 -9z"/>
<path d="M185 4180 c-3 -6 1 -7 9 -4 18 7 21 14 7 14 -6 0 -13 -4 -16 -10z"/>
<path d="M0 4011 c0 -6 4 -13 10 -16 6 -3 7 1 4 9 -7 18 -14 21 -14 7z"/>
<path d="M8059 3993 c-13 -16 -12 -17 4 -4 16 13 21 21 13 21 -2 0 -10 -8 -17
-17z"/>
<path d="M30 3966 c0 -2 7 -7 16 -10 8 -3 12 -2 9 4 -6 10 -25 14 -25 6z"/>
<path d="M7997 3933 c-10 -9 -9 -23 1 -23 5 0 9 7 9 15 0 17 -1 18 -10 8z"/>
<path d="M26 3922 c-3 -5 1 -9 9 -9 8 0 12 4 9 9 -3 4 -7 8 -9 8 -2 0 -6 -4
-9 -8z"/>
<path d="M8036 3922 c-3 -5 1 -9 9 -9 8 0 12 4 9 9 -3 4 -7 8 -9 8 -2 0 -6 -4
-9 -8z"/>
<path d="M195 3849 c-4 -6 -5 -12 -2 -15 2 -3 7 2 10 11 7 17 1 20 -8 4z"/>
<path d="M16 3593 c-6 -14 -5 -15 5 -6 7 7 10 15 7 18 -3 3 -9 -2 -12 -12z"/>
<path d="M8057 3596 c-3 -7 -1 -18 5 -24 8 -8 8 -16 -2 -27 -8 -10 -9 -15 -1
-15 6 0 11 5 11 11 0 8 6 7 17 -2 15 -13 15 -12 6 6 -6 11 -9 26 -7 33 1 7 0
8 -3 2 -7 -15 -23 -1 -16 15 3 8 3 15 0 15 -3 0 -7 -6 -10 -14z"/>
<path d="M8110 3605 c0 -5 5 -17 10 -25 5 -8 10 -10 10 -5 0 6 -5 17 -10 25
-5 8 -10 11 -10 5z"/>
<path d="M7999 3583 c-1 -5 -1 -12 0 -17 1 -4 -3 -14 -10 -22 -11 -14 -5 -34
12 -34 5 0 9 5 9 11 0 5 -4 7 -10 4 -5 -3 -10 -2 -10 3 0 19 14 21 32 5 18
-16 18 -16 12 0 -3 10 -1 17 5 17 6 0 11 5 11 11 0 8 -5 7 -16 -2 -13 -10 -17
-10 -24 1 -5 8 -6 18 -4 22 3 4 3 8 0 8 -3 0 -7 -3 -7 -7z"/>
<path d="M8101 3564 c0 -11 3 -14 6 -6 3 7 2 16 -1 19 -3 4 -6 -2 -5 -13z"/>
<path d="M7957 3555 c-16 -11 -16 -13 -2 -19 9 -3 14 -2 10 3 -3 5 1 11 7 14
7 2 11 7 8 10 -3 3 -13 0 -23 -8z"/>
<path d="M8135 3549 c-4 -6 -5 -12 -2 -15 2 -3 7 2 10 11 7 17 1 20 -8 4z"/>
<path d="M7915 3510 c-3 -5 -1 -10 4 -10 6 0 11 5 11 10 0 6 -2 10 -4 10 -3 0
-8 -4 -11 -10z"/>
<path d="M16 3482 c-2 -4 -1 -14 4 -22 7 -11 9 -9 7 8 -1 24 -3 26 -11 14z"/>
<path d="M76 3447 c3 -10 9 -15 12 -12 3 3 0 11 -7 18 -10 9 -11 8 -5 -6z"/>
<path d="M7473 3405 c0 -8 4 -12 9 -9 5 3 6 10 3 15 -9 13 -12 11 -12 -6z"/>
<path d="M910 2920 c-13 -8 -12 -10 3 -10 9 0 17 5 17 10 0 12 -1 12 -20 0z"/>
<path d="M7460 2916 c0 -3 13 -12 30 -21 27 -14 29 -14 23 0 -3 9 -8 14 -11
11 -2 -3 -13 -1 -23 5 -11 5 -19 7 -19 5z"/>
<path d="M890 2889 c0 -5 5 -7 10 -4 6 3 10 8 10 11 0 2 -4 4 -10 4 -5 0 -10
-5 -10 -11z"/>
<path d="M7535 2880 c3 -5 8 -10 11 -10 2 0 4 5 4 10 0 6 -5 10 -11 10 -5 0
-7 -4 -4 -10z"/>
<path d="M8380 2830 c-9 -6 -10 -10 -3 -10 6 0 15 5 18 10 8 12 4 12 -15 0z"/>
<path d="M8213 2795 c0 -8 4 -12 9 -9 4 3 8 9 8 15 0 5 -4 9 -8 9 -5 0 -9 -7
-9 -15z"/>
<path d="M155 2780 c3 -5 8 -10 11 -10 2 0 4 5 4 10 0 6 -5 10 -11 10 -5 0 -7
-4 -4 -10z"/>
<path d="M8386 2767 c3 -10 9 -15 12 -12 3 3 0 11 -7 18 -10 9 -11 8 -5 -6z"/>
<path d="M8219 2768 c-6 -20 -6 -39 0 -42 4 -3 7 6 7 20 0 20 -4 32 -7 22z"/>
<path d="M8390 2728 c0 -9 -6 -19 -12 -21 -10 -4 -10 -6 0 -6 14 -1 28 26 18
36 -3 4 -6 -1 -6 -9z"/>
<path d="M8385 2646 c0 -25 -3 -42 -7 -40 -4 3 -8 -2 -8 -11 0 -10 -5 -13 -12
-9 -7 4 -8 3 -4 -5 6 -9 11 -9 24 1 14 12 14 10 3 -10 -7 -12 -17 -20 -23 -16
-7 4 -8 3 -4 -5 4 -6 13 -9 19 -5 7 3 3 -2 -8 -12 -15 -13 -16 -15 -3 -11 9 3
19 0 22 -9 3 -8 2 -13 -3 -10 -5 3 -8 -8 -7 -24 0 -17 5 -30 10 -30 4 0 3 -6
-3 -13 -8 -10 -7 -14 2 -14 7 0 13 11 13 24 0 13 -4 23 -9 23 -6 0 -5 5 0 13
11 14 15 207 4 207 -4 0 -7 -20 -6 -44z"/>
<path d="M4861 2664 c6 -7 15 -12 19 -9 4 3 13 -1 19 -9 9 -11 9 -15 -1 -19
-9 -4 -9 -6 -1 -6 22 -2 23 16 2 35 -25 23 -56 30 -38 8z"/>
<path d="M3574 2589 c-4 -7 -3 -9 4 -5 5 3 13 0 15 -6 4 -9 6 -10 6 -1 1 17
-16 25 -25 12z"/>
<path d="M4900 2539 c0 -5 5 -7 10 -4 6 3 10 8 10 11 0 2 -4 4 -10 4 -5 0 -10
-5 -10 -11z"/>
<path d="M176 2282 c-3 -5 1 -9 9 -9 8 0 12 4 9 9 -3 4 -7 8 -9 8 -2 0 -6 -4
-9 -8z"/>
<path d="M3773 2265 c0 -8 4 -12 9 -9 5 3 6 10 3 15 -9 13 -12 11 -12 -6z"/>
<path d="M4631 1967 c-8 -10 -7 -14 2 -14 8 0 14 6 14 14 0 7 -1 13 -2 13 -2
0 -8 -6 -14 -13z"/>
<path d="M4540 1926 c0 -2 8 -10 18 -17 15 -13 16 -12 3 4 -13 16 -21 21 -21
13z"/>
<path d="M3550 1810 c-8 -5 -12 -12 -9 -15 4 -3 12 1 19 10 14 17 11 19 -10 5z"/>
<path d="M8215 1795 c0 -13 6 -30 14 -37 11 -11 12 -10 4 6 -6 10 -8 27 -6 37
3 11 1 19 -4 19 -5 0 -9 -11 -8 -25z"/>
<path d="M3568 1785 c-3 -3 -16 -8 -28 -10 -28 -5 -34 -11 -21 -20 6 -3 11 -1
11 5 0 6 4 9 9 6 4 -3 17 1 27 9 10 8 16 15 13 15 -3 0 -8 -2 -11 -5z"/>
<path d="M3508 1683 c7 -3 16 -2 19 1 4 3 -2 6 -13 5 -11 0 -14 -3 -6 -6z"/>
<path d="M4107 1667 c-3 -7 3 -13 14 -13 13 0 15 3 7 13 -6 7 -12 13 -13 13
-2 0 -5 -6 -8 -13z"/>
<path d="M3510 1659 c0 -5 5 -7 10 -4 6 3 10 8 10 11 0 2 -4 4 -10 4 -5 0 -10
-5 -10 -11z"/>
<path d="M3526 1642 c-3 -5 1 -9 9 -9 8 0 12 4 9 9 -3 4 -7 8 -9 8 -2 0 -6 -4
-9 -8z"/>
<path d="M8384 1383 c4 -8 2 -13 -6 -13 -8 0 -9 -3 -3 -8 16 -12 18 -35 2 -29
-11 4 -13 0 -9 -15 4 -16 2 -19 -8 -13 -8 5 -11 4 -6 -3 4 -6 13 -9 21 -5 11
4 13 1 9 -11 -3 -9 -10 -13 -15 -10 -5 3 -6 -2 -3 -10 3 -9 10 -13 15 -10 12
7 11 -3 -3 -29 -10 -20 -10 -21 5 -9 12 11 15 30 14 87 -2 41 -6 77 -11 82 -5
4 -6 3 -2 -4z"/>
<path d="M176 1363 c-6 -14 -5 -15 5 -6 7 7 10 15 7 18 -3 3 -9 -2 -12 -12z"/>
<path d="M3820 1300 c-9 -6 -10 -10 -3 -10 6 0 15 5 18 10 8 12 4 12 -15 0z"/>
<path d="M3827 1256 c-10 -8 -15 -20 -11 -30 5 -12 2 -15 -12 -10 -16 5 -16 4
-4 -5 12 -9 13 -11 1 -11 -8 0 -11 -3 -8 -6 4 -4 12 -2 19 3 7 6 20 9 29 8 11
-2 15 4 13 21 -1 13 2 24 7 24 6 0 7 5 4 10 -8 13 -16 12 -38 -4z m20 -11 c0
-8 -7 -15 -15 -15 -12 0 -12 3 -2 15 7 8 13 15 15 15 1 0 2 -7 2 -15z"/>
<path d="M3880 1255 c0 -5 5 -17 10 -25 5 -8 10 -10 10 -5 0 6 -5 17 -10 25
-5 8 -10 11 -10 5z"/>
<path d="M3870 1221 c0 -6 4 -13 10 -16 6 -3 7 1 4 9 -7 18 -14 21 -14 7z"/>
<path d="M8390 1199 c0 -5 -4 -7 -10 -4 -14 9 -12 -1 3 -13 10 -8 13 -6 14 9
1 10 0 19 -3 19 -2 0 -4 -5 -4 -11z"/>
<path d="M3850 1179 c0 -5 5 -7 10 -4 6 3 10 8 10 11 0 2 -4 4 -10 4 -5 0 -10
-5 -10 -11z"/>
<path d="M8378 1010 c-16 -18 -16 -19 1 -17 9 0 18 9 18 19 2 21 3 21 -19 -2z"/>
</g>
</svg>
